<?xml version="1.0" encoding="UTF-8" standalone="no"?><!DOCTYPE svg PUBLIC "-//W3C//DTD SVG 1.1//EN" "http://www.w3.org/Graphics/SVG/1.1/DTD/svg11.dtd"><svg width="100%" height="100%" viewBox="0 0 198 203" version="1.1" xmlns="http://www.w3.org/2000/svg" xmlns:xlink="http://www.w3.org/1999/xlink" xml:space="preserve" xmlns:serif="http://www.serif.com/" style="fill-rule:evenodd;clip-rule:evenodd;stroke-linejoin:round;stroke-miterlimit:2;"><rect id="Artboard2" x="0" y="0" width="197.395" height="203" style="fill:none;"/><clipPath id="_clip1"><rect x="0" y="0" width="197.395" height="203"/></clipPath><g clip-path="url(#_clip1)"><path d="M187.671,94.278c5.542,0 9.917,4.375 9.917,9.917l0,63c0,20.417 -16.625,36.75 -36.75,36.75l-21.292,0c-20.417,0 -36.75,-16.333 -36.75,-36.75l0,-130.667c0,-19.833 16.042,-35.583 35.583,-35.583l21.875,0c19.542,0 35.583,15.75 35.583,35.583l0,19.833c0,2.917 -2.625,5.25 -5.542,5.25l-18.083,0c-2.917,0 -5.542,-2.333 -5.542,-5.25l0,-17.5c0,-7.292 -5.542,-13.125 -12.833,-13.125l-9.333,0c-7,0 -12.833,5.833 -12.833,13.125l0,127.167c0,7 5.833,12.833 12.833,12.833l11.083,0c7.292,0 13.125,-5.833 13.125,-12.833l0,-39.958c0,-3.792 -2.917,-6.417 -6.417,-6.417l-8.167,0c-2.042,0 -4.083,-2.042 -4.083,-4.375l0,-16.917c0,-2.042 2.042,-4.083 4.083,-4.083l33.542,0Zm-92.434,-89.542l0.207,195.417c-0.041,2.042 -1.785,3.792 -3.827,3.792l-21,0c-2.333,0 -4.09,-1.75 -4.048,-3.792l-0.132,-9.917c0.083,-4.083 -2.941,-7 -7.316,-7l-16.917,0c-4.083,0 -8.059,2.917 -9.6,7l-3.368,9.917c-0.625,2.042 -2.952,3.792 -4.993,3.792l-21.292,0c-2.042,0 -3.215,-1.75 -2.59,-3.792l63.96,-195.417c0.625,-2.042 2.952,-3.792 5.285,-3.792l21.583,0c2.333,0 4.09,1.75 4.048,3.792Zm-50.752,150.208c-0.53,1.458 0.643,3.208 2.393,3.208l16.042,0c1.75,0 3.202,-1.75 3.148,-3.208l2.954,-71.75c0.041,-2.042 -3.167,-2.042 -3.792,0l-20.745,71.75Z" style="fill:#ebebeb;"/></g></svg>