<?xml version="1.0" encoding="UTF-8" standalone="no"?><!DOCTYPE svg PUBLIC "-//W3C//DTD SVG 1.1//EN" "http://www.w3.org/Graphics/SVG/1.1/DTD/svg11.dtd"><svg width="100%" height="100%" viewBox="0 0 904 195" version="1.1" xmlns="http://www.w3.org/2000/svg" xmlns:xlink="http://www.w3.org/1999/xlink" xml:space="preserve" xmlns:serif="http://www.serif.com/" style="fill-rule:evenodd;clip-rule:evenodd;stroke-linejoin:round;stroke-miterlimit:2;"><rect id="Artboard3" x="0" y="0" width="903.194" height="194.25" style="fill:none;"/><clipPath id="_clip1"><rect x="0" y="0" width="903.194" height="194.25"/></clipPath><g clip-path="url(#_clip1)"><path d="M531.809,117.007c3.792,6.417 3.792,15.458 3.208,22.75c-2.042,31.792 -25.958,53.958 -54.833,53.958c-52.208,0 -55.125,-56.583 -46.375,-93.917c9.917,-42 47.833,-95.375 95.083,-97.708c18.375,-0.875 34.417,8.75 33.25,27.417c-0.583,17.208 -12.833,30.625 -29.167,35c-7.875,2.042 -16.917,-0.583 -17.792,-10.208c-0.583,-4.083 2.917,-8.167 7,-8.167c2.625,0 4.958,1.458 5.833,3.792c0.292,0.583 0.292,1.75 0.875,2.042c0.583,0 1.458,-0.292 2.333,-0.583c9.917,-4.083 17.208,-11.958 17.208,-23.042c0,-10.5 -12.542,-13.708 -21,-12.542c-39.958,4.375 -71.167,49.875 -80.208,85.75c-7,28.292 -8.167,78.458 33.542,78.458c19.833,0 37.625,-14.583 39.958,-37.625c0.583,-5.833 1.75,-13.708 -0.875,-18.958c-0.875,-2.042 -1.458,-4.083 -0.583,-6.417c1.167,-2.917 4.667,-4.667 7.875,-3.5c2.042,0.583 3.5,2.042 4.667,3.5Zm34.125,-41.417c3.5,2.042 4.375,5.833 2.333,10.5c-2.917,6.708 -9.917,10.792 -23.333,13.125c-13.708,2.042 -27.417,0.875 -40.833,4.667c-5.833,1.458 -17.208,5.25 -17.208,13.125c0,1.458 0.583,2.917 2.042,4.083c2.333,2.333 4.375,4.375 3.208,7.875c-0.583,2.042 -2.917,3.792 -5.25,3.792c-7.875,0 -12.833,-9.042 -12.833,-16.625c0,-9.917 7.583,-18.667 20.125,-23.625c13.417,-5.542 32.083,-5.542 46.667,-7c4.375,-0.583 14.292,-1.167 15.458,-6.417c1.167,-3.792 6.125,-5.542 9.625,-3.5Zm-345.331,-74.84c7,0 10.5,6.125 7,12.25c-1.458,2.625 -4.083,4.667 -9.042,6.125c-2.917,0.875 -5.542,2.917 -7.875,5.25c-19.833,20.708 -38.5,47.833 -50.167,73.792c-10.5,23.333 -16.042,48.125 -9.042,67.958c2.333,6.417 6.708,14.292 14.292,15.167c0.875,0 2.625,0 4.083,0.583c2.042,0.875 3.792,3.5 3.5,6.417c-0.583,4.667 -4.667,6.708 -8.75,6.708c-9.917,0 -18.958,-9.042 -23.625,-16.917c-23.042,-39.375 11.667,-102.083 37.625,-135.917c2.917,-3.792 6.417,-8.167 9.917,-12.25c1.167,-1.167 -0.292,-1.458 -1.458,-1.167c-26.25,7.875 -50.458,44.917 -63.875,71.167c-0.583,1.167 -0.292,1.75 0.875,2.042c1.75,0.583 5.25,0.292 7,0.292c3.5,0 5.542,2.625 5.542,6.417c0,5.25 -5.25,7 -9.625,7c-4.083,0 -8.167,-1.75 -11.083,-1.458c-0.583,0 -1.458,0.875 -2.333,2.333c-15.167,28.583 -35,60.958 -72.625,56.583c-12.542,-1.167 -22.167,-7.292 -30.042,-16.625c-7.875,-9.333 -10.792,-20.417 -10.792,-32.083c0,-23.333 16.333,-45.792 39.375,-45.792c14.875,0 23.333,9.042 23.333,23.333c0,5.542 -1.167,10.5 -4.375,15.167c-2.625,3.5 -6.417,5.833 -10.5,6.417c-2.917,0.583 -6.417,0.292 -9.042,-1.167c-2.333,-1.458 -3.5,-4.083 -3.208,-6.708c0.583,-2.625 2.333,-4.667 4.958,-5.25c1.167,-0.292 2.333,-0.292 3.792,-0.292c4.083,0 4.958,-6.708 4.667,-9.625c-0.583,-5.833 -4.375,-8.458 -10.208,-8.458c-9.917,0 -19.542,9.917 -22.458,18.958c-2.625,7 -2.917,14.583 -1.75,22.458c2.917,14.875 15.458,26.25 30.625,26.25c21,0 33.542,-11.958 44.042,-28.292c3.5,-5.833 7.292,-11.667 10.5,-17.792l0.875,-1.458c0.583,-1.167 0.292,-1.75 -0.875,-1.75c-9.625,0 -15.75,0.875 -19.542,4.667c-0.583,0.583 -1.167,1.458 -1.458,2.042c-1.458,2.333 -4.375,3.5 -7,2.625c-2.333,-0.583 -4.083,-3.208 -4.083,-5.542c-0.583,-8.167 11.083,-13.708 17.5,-15.458c6.125,-1.75 12.542,-2.042 18.958,-1.75c5.833,0.292 4.375,0.875 7.292,-4.083c14.583,-24.208 28.583,-50.167 52.208,-67.083c0.583,-0.292 0.583,-0.583 -0.292,-0.583c-15.75,0 -31.792,4.375 -43.167,11.083c-7.875,4.667 -18.375,15.458 -18.375,21.292c0,2.042 1.167,2.625 2.625,3.208c2.333,0.583 3.208,2.625 3.208,4.667c0,2.333 -1.458,4.958 -3.792,5.833c-1.458,0.583 -2.917,0.875 -4.375,0.583c-7,-1.167 -10.5,-7.583 -10.5,-14c0,-10.792 9.042,-24.208 25.375,-33.833c9.333,-5.542 24.208,-10.208 40.25,-11.958c10.792,-1.167 21.875,-1.75 32.958,-1.75c5.542,0 11.083,-0.583 16.917,-1.458c1.458,-0.292 3.5,-0.875 4.958,-2.333c4.083,-4.083 7.583,-5.833 11.083,-5.833Zm-1.542,150.318l18.464,0c1.319,0 2.473,0.989 2.473,2.308l0,9.562c0,1.319 -1.154,2.308 -2.473,2.308l-35.939,0c-2.473,0 -4.286,-1.813 -4.286,-4.286l0,-106.498c0,-2.308 1.813,-3.957 3.957,-3.957l8.573,0c2.143,0 3.792,1.649 3.792,3.627l0,91.496c0,2.967 2.473,5.44 5.44,5.44Zm55.063,-86.386c-2.967,0 -5.44,2.473 -5.44,5.44l0,27.696c0,3.132 2.473,5.44 5.44,5.44l11.21,0c1.154,0 2.308,1.154 2.308,2.308l0,9.562c0,1.319 -1.154,2.473 -2.308,2.473l-11.21,0c-2.967,0 -5.44,2.308 -5.44,5.44l0,22.586c0,2.967 2.473,5.44 5.44,5.44l18.464,0c1.319,0 2.473,0.989 2.473,2.308l0,9.562c0,1.319 -1.154,2.308 -2.473,2.308l-35.939,0c-2.473,0 -4.286,-1.813 -4.286,-4.286l0,-106.334c0,-2.308 1.813,-4.121 4.286,-4.121l35.939,0c1.319,0 2.473,0.989 2.473,2.308l0,9.397c0,1.319 -1.154,2.473 -2.473,2.473l-18.464,0Zm66.438,49.952l15.332,48.468c0.495,1.154 -0.165,2.143 -1.484,2.143l-11.87,0c-1.154,0 -2.473,-0.989 -2.967,-2.143l-9.067,-34.95c-0.33,-1.319 -2.143,-1.319 -2.473,0l-9.067,34.95c-0.495,1.154 -1.813,2.143 -2.967,2.143l-12.035,0c-1.154,0 -1.813,-0.989 -1.319,-2.143l15.497,-49.128c1.154,-3.462 1.154,-7.089 0.165,-10.386l-15.662,-50.941c-0.495,-1.154 0.165,-2.143 1.319,-2.143l12.035,0c1.154,0 2.473,0.989 2.967,2.143l9.067,34.95c0.33,1.154 2.143,1.154 2.473,0l9.067,-34.95c0.495,-1.154 1.813,-2.143 2.967,-2.143l11.87,0c1.319,0 1.978,0.989 1.484,2.143l-15.332,51.765c-0.989,3.297 -0.989,6.924 0,10.221Zm294.993,50.959c0.345,1.206 -0.345,2.24 -1.551,2.24l-12.577,0c-1.206,0 -2.584,-1.034 -2.929,-2.24l-8.787,-33.425c-0.689,-2.068 -2.584,-3.618 -4.824,-3.618l-3.79,0c-3.101,0 -5.686,2.584 -5.686,5.686l0,31.357c0,1.206 -1.034,2.24 -2.24,2.24l-12.577,0c-1.206,0 -2.24,-1.034 -2.24,-2.24l0,-115.264c0,-1.378 1.034,-2.412 2.24,-2.412l33.425,0c11.199,0 20.331,9.132 20.331,20.331l0,40.661c0,5.686 -2.412,10.682 -6.203,14.128c-1.895,1.895 -2.412,4.652 -1.723,7.236l9.132,35.32Zm-34.459,-51.86l10.51,0c3.101,0 5.686,-2.584 5.686,-5.686l0,-39.627c0,-3.101 -2.584,-5.686 -5.686,-5.686l-10.51,0c-3.101,0 -5.686,2.584 -5.686,5.686l0,39.627c0,3.101 2.584,5.686 5.686,5.686Zm84.251,-65.816c11.544,0 21.02,9.304 21.02,21.02l0,77.877c0,11.544 -9.476,21.02 -21.02,21.02l-13.956,0c-11.544,0 -21.02,-9.476 -21.02,-21.02l0,-77.877c0,-11.716 9.476,-21.02 21.02,-21.02l13.956,0Zm3.963,22.398c0,-4.307 -3.446,-7.753 -7.753,-7.753l-6.547,0c-4.135,0 -7.581,3.446 -7.581,7.753l0,75.12c0,4.135 3.446,7.581 7.581,7.581l6.547,0c4.307,0 7.753,-3.446 7.753,-7.581l0,-75.12Zm69.951,9.304c-6.892,0 2.068,-18.608 -12.922,-18.608c-7.064,0 -9.648,5.341 -9.648,11.716c0,23.949 40.489,29.979 40.489,64.955c0,18.263 -10.51,31.874 -29.634,31.874c-15.506,0 -27.911,-12.577 -27.911,-27.911c0,-2.584 -1.034,-7.925 3.101,-7.925l10.682,0c7.236,0 -2.412,21.02 14.128,21.02c9.648,0 12.75,-8.959 12.75,-17.229c0,-25.844 -40.661,-31.185 -40.661,-64.438c0,-14.645 12.061,-26.878 26.705,-26.878c14.817,0 26.878,12.061 26.878,26.878c0,2.412 0.517,6.547 -3.101,6.547l-10.854,0Zm66.677,0c-6.892,0 2.068,-18.608 -12.922,-18.608c-7.064,0 -9.648,5.341 -9.648,11.716c0,23.949 40.489,29.979 40.489,64.955c0,18.263 -10.51,31.874 -29.634,31.874c-15.506,0 -27.911,-12.577 -27.911,-27.911c0,-2.584 -1.034,-7.925 3.101,-7.925l10.682,0c7.236,0 -2.412,21.02 14.128,21.02c9.648,0 12.75,-8.959 12.75,-17.229c0,-25.844 -40.661,-31.185 -40.661,-64.438c0,-14.645 12.061,-26.878 26.705,-26.878c14.817,0 26.878,12.061 26.878,26.878c0,2.412 0.517,6.547 -3.101,6.547l-10.854,0Zm55.478,-16.885c-3.101,0 -5.686,2.584 -5.686,5.686l0,28.945c0,3.274 2.584,5.686 5.686,5.686l11.716,0c1.206,0 2.412,1.206 2.412,2.412l0,9.993c0,1.378 -1.206,2.584 -2.412,2.584l-11.716,0c-3.101,0 -5.686,2.412 -5.686,5.686l0,23.604c0,3.101 2.584,5.686 5.686,5.686l19.297,0c1.378,0 2.584,1.034 2.584,2.412l0,9.993c0,1.378 -1.206,2.412 -2.584,2.412l-37.56,0c-2.584,0 -4.48,-1.895 -4.48,-4.48l0,-111.129c0,-2.412 1.895,-4.307 4.48,-4.307l37.56,0c1.378,0 2.584,1.034 2.584,2.412l0,9.821c0,1.378 -1.206,2.584 -2.584,2.584l-19.297,0Z" style="fill:#ebebeb;"/></g></svg>