<?xml version="1.0" encoding="UTF-8"?>
<svg id="Layer_3" xmlns="http://www.w3.org/2000/svg" version="1.1" viewBox="0 0 23.0470354 25.1263244">
  <!-- Generator: Adobe Illustrator 29.4.0, SVG Export Plug-In . SVG Version: 2.1.0 Build 152)  -->
  <defs>
    <style>
      .st0 {
        fill: #fff;
      }
    </style>
  </defs>
  <path class="st0" d="M22.1156923,14.2974354c-.0029449-.000824-.0057144-.0011759-.0086365-.0019312-.1148224-.1355982-.3190308-.1804008-.475853-.0829153-.0523682.022028-.1000366.0626898-.1359024.1264229-1.088089,1.9332867-2.7109375,3.5405598-4.6959305,4.544136-1.0842438.5481796-2.2613068.8880177-3.46064,1.0130501-.0101089-.0802116-.0193939-.1605091-.0305328-.2406063-.1717148-1.2353745-.4780426-2.4508038-.916481-3.6185913-.4362564-1.1619549-.992485-2.280282-1.6700974-3.3205681-.6701965-1.0289097-1.5219803-1.9123936-2.2375793-2.9064627-.6722107-.9337864-1.2649231-2.1801476-.8077087-3.3354445.3744507-.9461546,1.429306-1.3108406,2.3736343-1.3153067,1.2977295-.0061407,2.4977036.5658884,3.7601242.7797565,1.181015.2000723,2.3345642.0866446,3.4295578-.409296,1.0218582-.4628115,1.897377-1.1963973,2.6879578-1.980794.4452057-.441721.8678436-.9063902,1.2655411-1.391326.1724472-.2102718.3401718-.4244332.5042114-.6413264.1709137-.225981.4201202-.483435.5261841-.7450943.0306549-.0756351.0359116-.1483645.0239563-.2146602-.0002213-.0012629-.0004883-.0025305-.0007248-.0037934-.0072556-.0378702-.0202866-.0732831-.0384216-.10574-.0018082-.0033862-.0031433-.006722-.0050735-.0101219-.0020218-.0035601-.0042877-.0066305-.0063629-.0100761-.0019073-.0029469-.0036163-.005999-.0056076-.0088864-.0868301-.1367188-.2192841-.1813659-.3589554-.1597493-.0597916-.0033953-.1213379.0162673-.1778107.0631566-.0439224.02568-.0757751.057272-.096344.0928634-.8022156.8171922-2.1827469,1.0074858-3.274231.9728324-1.5119171-.0480058-2.8029099-.9745209-4.3073654-1.0226228-2.5557938-.0817119-4.6044388,2.0129765-6.218132,3.7361468-1.8607178,1.9869485-3.4841881,4.4248667-3.3803711,7.2595148.0507698,1.3863525.5542526,2.6656141,1.4830742,3.696291.7513618.8337574,1.6999321,1.4453487,2.6409111,2.0410633,1.2240753.7749329,2.6024323,1.6145287,3.3619995,2.8438187-.7445145-.0320168-1.4865952-.14674-2.2096176-.3468533-2.0608139-.5703735-3.9167023-1.8367405-5.1288071-3.6078701-1.3456535-1.9662743-1.8686295-4.4557257-1.3558846-6.7899075.5079498-2.3123684,1.9871368-4.2482867,3.654583-5.8671494.8143539-.7906199,1.6836395-1.521982,2.5612717-2.2407694.2469788-.2022778.9599838-.6101234.5495529-.9965538-.3057785-.2879021-.9926376.1786707-1.2952576.3190411C4.592106,2.288688,1.2513887,5.7683602.278248,10.2096439c-.5039215,2.2998304-.3169861,4.6595325.5088844,6.8613319.7969475,2.1246929,2.044117,4.3504486,3.8043442,5.8273392,1.820488,1.5274506,4.1838913,1.9228363,6.4795303,2.1535435,1.1598206.1165581,2.3538742.1252155,3.4859619-.1876526,1.0964279-.3030167,2.0507812-.9317093,2.8576736-1.7231064.7970505-.7817516,1.4486542-1.7016544,2.0541687-2.6353588.6809387-1.050024,1.2978516-2.1394997,1.840477-3.2674046.2707901-.5628586.523056-1.1345444.7594223-1.7126875.1237335-.3026552.5982437-1.0736074.0469971-1.2282133h-.0000153Z"/>
</svg>