<?xml version="1.0" encoding="UTF-8"?>
<svg id="Layer_3" xmlns="http://www.w3.org/2000/svg" version="1.1" viewBox="0 0 219.8635559 25.1263244">
  <!-- Generator: Adobe Illustrator 29.4.0, SVG Export Plug-In . SVG Version: 2.1.0 Build 152)  -->
  <defs>
    <style>
      .st0 {
        fill: #ffa617;
      }
    </style>
  </defs>
  <g id="wordmark">
    <g>
      <path class="st0" d="M96.0351486,12.7672983c0,5.2987013-1.5761642,12.2407942-7.6462631,12.2407942s-7.6472473-6.9420929-7.6472473-12.2407942c0-5.3325601,1.5771484-12.2746534,7.6472473-12.2746534s7.6462631,6.9420929,7.6462631,12.2746534ZM91.1388321,12.7672983c0-3.9909554-.8724823-8.0491381-2.7499466-8.0491381-1.8784409,0-2.7499466,4.0581827-2.7499466,8.0491381,0,3.9570971.8715057,8.048646,2.7499466,8.048646,1.8774643,0,2.7499466-4.0915508,2.7499466-8.048646Z"/>
      <path class="st0" d="M102.2720871.4926452v18.0763318c0,1.307745.9725876,2.2469673,2.2464752,2.2469673,1.3416061,0,2.2474594-.9725895,2.2474594-2.2469673V.4926452h4.8963165v18.0429646c0,4.1921463-3.3544998,6.4724827-7.1437759,6.4724827-3.5880814,0-7.1437759-2.1463718-7.1437759-6.4724827V.4926452h4.8973007Z"/>
      <path class="st0" d="M113.0019836.4926452h6.5735703c6.0367279,0,7.7139816,3.6553084,7.7139816,6.5058509,0,4.2593741-4.1592712,5.7688022-4.1592712,5.7688022,0,0,4.1592712.1673326,4.1592712,5.7683115v6.4724827h-5.0641403l-.1010895-7.378336c0-1.8779526-1.3082352-2.7499466-2.8500519-2.7499466h-1.3749695v10.1282806h-4.8973007V.4926452ZM117.8992844,10.6542955h1.6428986c1.777359,0,2.5821228-1.6767607,2.5821228-2.9849968,0-1.2405181-.8381348-2.9511375-2.8843994-2.9511375h-1.3406219s0,5.9361353,0,5.9361343Z"/>
      <path class="st0" d="M142.1298065.4926452v4.2255155h-4.6951294v20.2899318h-4.8972931V4.7181602h-4.6951294V.4926452h14.2875519Z"/>
      <path class="st0" d="M143.4694519.4926452h6.5735626c6.0367279,0,7.7139893,3.6553084,7.7139893,6.5058509,0,4.2593741-4.1592712,5.7688022-4.1592712,5.7688022,0,0,4.1592712.1673326,4.1592712,5.7683115v6.4724827h-5.0641479l-.1010895-7.378336c0-1.8779526-1.3082428-2.7499466-2.8500519-2.7499466h-1.3749695v10.1282806h-4.8972931V.4926452ZM148.366745,10.6542955h1.6428986c1.777359,0,2.5821228-1.6767607,2.5821228-2.9849968,0-1.2405181-.8381348-2.9511375-2.8843994-2.9511375h-1.3406219s0,5.9361353,0,5.9361343Z"/>
      <path class="st0" d="M163.9939423,25.0080925h-4.8972931V.4926452h4.8972931v24.5154473Z"/>
      <path class="st0" d="M180.5937195,10.3186489v14.6894436h-4.8963165v-2.3475628s-1.5094299,2.3475628-3.8903656,2.3475628c-4.6283875,0-6.5068359-6.4057446-6.5068359-11.7044468,0-5.3325601,2.0796356-12.8110008,8.3842926-12.8110008,6.1044464,0,6.9092102,6.4052548,6.9092102,6.4052548h-4.6283875s-.8381348-2.1797395-2.4486542-2.1797395c-2.1120148,0-3.3201599,4.0581827-3.3201599,8.0491381,0,3.9570971,1.0069427,8.048646,2.8843994,8.048646,1.6095276,0,2.6164703-2.6493511,2.6164703-5.6004887v-.7046614h-2.9177704v-4.1921473h7.8140869l.0000305.0000019Z"/>
      <path class="st0" d="M181.833252,5.8929234l-.2011871-.1673326,4.4595795-4.460566c.1786194-.1339642.3915863-.2679284.6379242-.4023833.2011871-.0888187.4465485-.1727304.7370453-.2512442.2904968-.0780231.6261444-.1177707,1.0059509-.1177707.447525,0,1.0010529.0564318,1.6605682.1678233.6585388.1123729,1.3357086.2296529,2.028595.3523307.6928864.1231685,1.3415985.2404485,1.9451752.35184.6035767.1123729,1.0619049.1678233,1.3749695.1678233.4239807,0,.826355-.0554504,1.2071533-.1678233.3798065-.1113915.7262573-.23456,1.0393219-.3685242.3572388-.1344549.6928864-.3017875,1.0059509-.5034698l.2011871.1678233-3.9227448,3.9237276v7.5118089h4.4262238v-5.5332608c0-.5142655-.0284576-.9441285-.0834198-1.2910614-.0569153-.3464422-.2747955-.5196633-.6546021-.5196633-.0451508,0-.0834198.0053978-.1167908.0166841-.0343475.0112863-.0736084.0166841-.1177673.0166841-.0225677.0225725-.0451508.0451455-.0667419.0672274l-.1678162-.2011914,4.1582947-4.1587782c.3798065.0225727.7154541.1570276,1.0059509.402874.2453613.2011917.4691162.5142655.6703186.9387307.2011871.4249561.3022766,1.0398173.3022766,1.844584v15.2581782c0,.5368385.0274811.9784775.0834198,1.3249207.0559387.3469334.2630157.5196629.6212463.5196629.0667419,0,.1442719-.0220814.2345581-.0672283.0215912,0,.0441589-.0107956.0667419-.0333691l.2011871.1678238-4.1582947,4.1916561c-.3807983-.0225735-.7046661-.1560459-.9725952-.4023838-.2463379-.2011909-.4750061-.5196629-.6869965-.9554157-.2129669-.4362431-.3189697-1.0565014-.3189697-1.861269v-6.8414974h-4.4262085v6.0028706l-4.0248108,4.0576916c-.2011871-.3798103-.4583282-.7149658-.7713928-1.0059586-.2679291-.2458458-.6153564-.4745178-1.0393219-.6874866-.4249573-.2119865-.928421-.3184719-1.5094299-.3184719-.7596283,0-1.4868622.1064835-2.1797333.3184719-.6928864.2129688-1.3190308.4416409-1.8774567.6874866-.6261444.2909927-1.2189331.6261482-1.777359,1.0059586l-.2011871-.2011909,5.2987061-5.2648411c.3572388-.3798103.6811066-.8047657.9716034-1.2743778.2463379-.3798103.4642181-.8435326.6546021-1.3916569.1894073-.5476341.2846069-1.1453199.2846069-1.7940407l.033371-2.9177694c0-.9833851.207077-1.861268.6212463-2.6326666.4131775-.7709074.8656158-1.4358215,1.3573151-1.9952321.5819855-.6482296,1.2415009-1.2179456,1.9785461-1.7101293-.514267,0-1.0726929-.0505433-1.6762695-.1511393s-1.2405243-.217876-1.9118042-.35184c-.6703186-.1344547-1.3582916-.2517347-2.0619659-.3523307-.7046661-.100596-1.4034271-.1506486-2.0963135-.1506486-.4249573,0-.8332214.0559411-1.2238312.1673326-.3915863.1123729-.7439117.2237644-1.056015.3356466-.3356476.1565371-.6604919.335156-.9725952.5363474l-.0000153.0000043ZM183.0070343,12.4660011l3.2190704-3.2529259h-4.5940399l2.9167938-2.8839102h5.3330536c-.6045532.5142655-1.1404114,1.0952678-1.6105194,1.7434969-.4023895.559411-.7713928,1.2189274-1.1060638,1.978548-.3356476.760603-.5034637,1.5987377-.5034637,2.5153866v2.5487547c0,.5142651-.0667419.9725904-.2011871,1.3749723s-.2904968.7493153-.4691162,1.0393257c-.2011871.3356457-.4249573.637434-.6712952.9053631l-3.6881866,3.7225361v-6.3713951c0-.5142651.07164-.9725895.2178802-1.3749733.1452484-.402874.3071899-.7488251.4858093-1.0398178.2011871-.3351555.4249573-.6369429.6712952-.9053621l-.0000305.000001ZM194.743866,14.9808966h-2.0119171l-3.7559052,3.8231325c.2011871-.0888195.4239807-.1678238.6703186-.23456.2237701-.0672283.4867859-.1226768.7880859-.1678238.3022766-.0446548.6428375-.0672283,1.0236206-.0672283.5810089,0,1.0726929.1064835,1.4750824.3189621s.7380371.4524364,1.0059509.7208557c.3130798.3130741.5810089.6595154.8047638,1.0393257,0,0,0-5.4326649,0-5.4326639ZM193.5367279,13.539187l1.2071533-1.1737814v-7.5118089c-.1786194.2011914-.3238678.46912-.4357452.8047667-.1118774.3130736-.2178802.7100592-.3189697,1.1904655-.1000977.4808969-.1501617,1.0790739-.1501617,1.7940407v3.2529259c0,.3135643-.0284576.6035748-.0843964.871994s-.1285706.5255518-.2178802.7713976Z"/>
      <path class="st0" d="M219.8635559.4926452v4.2255155h-4.6951294v20.2899318h-4.8972931V4.7181602h-4.6951294V.4926452h14.2875519Z"/>
      <path class="st0" d="M79.8102951,14.2974354c-.0029449-.000824-.0057144-.0011759-.0086365-.0019312-.1148224-.1355982-.3190308-.1804008-.475853-.0829153-.0523682.022028-.1000366.0626898-.1359024.1264229-1.088089,1.9332867-2.7109375,3.5405598-4.6959305,4.544136-1.0842438.5481796-2.2613068.8880177-3.46064,1.0130501-.0101089-.0802116-.0193939-.1605091-.0305328-.2406063-.1717148-1.2353745-.4780426-2.4508038-.916481-3.6185913-.4362564-1.1619549-.992485-2.280282-1.6700974-3.3205681-.6701965-1.0289097-1.5219803-1.9123936-2.2375793-2.9064627-.6722107-.9337864-1.2649231-2.1801476-.8077087-3.3354445.3744507-.9461546,1.429306-1.3108406,2.3736343-1.3153067,1.2977295-.0061407,2.4977036.5658884,3.7601242.7797565,1.181015.2000723,2.3345642.0866446,3.4295578-.409296,1.0218582-.4628115,1.897377-1.1963973,2.6879578-1.980794.4452057-.441721.8678436-.9063902,1.2655411-1.391326.1724472-.2102718.3401718-.4244332.5042114-.6413264.1709137-.225981.4201202-.483435.5261841-.7450943.0306549-.0756351.0359116-.1483645.0239563-.2146602-.0002213-.0012629-.0004883-.0025305-.0007248-.0037934-.0072556-.0378702-.0202866-.0732831-.0384216-.10574-.0018082-.0033862-.0031433-.006722-.0050735-.0101219-.0020218-.0035601-.0042877-.0066305-.0063629-.0100761-.0019073-.0029469-.0036163-.005999-.0056076-.0088864-.0868301-.1367188-.2192841-.1813659-.3589554-.1597493-.0597916-.0033953-.1213379.0162673-.1778107.0631566-.0439224.02568-.0757751.057272-.096344.0928634-.8022156.8171922-2.1827469,1.0074858-3.274231.9728324-1.5119171-.0480058-2.8029099-.9745209-4.3073654-1.0226228-2.5557938-.0817119-4.6044388,2.0129765-6.218132,3.7361468-1.8607178,1.9869485-3.4841881,4.4248667-3.3803711,7.2595148.0507698,1.3863525.5542526,2.6656141,1.4830742,3.696291.7513618.8337574,1.6999321,1.4453487,2.6409111,2.0410633,1.2240753.7749329,2.6024323,1.6145287,3.3619995,2.8438187-.7445145-.0320168-1.4865952-.14674-2.2096176-.3468533-2.0608139-.5703735-3.9167023-1.8367405-5.1288071-3.6078701-1.3456535-1.9662743-1.8686295-4.4557257-1.3558846-6.7899075.5079498-2.3123684,1.9871368-4.2482867,3.654583-5.8671494.8143539-.7906199,1.6836395-1.521982,2.5612717-2.2407694.2469788-.2022778.9599838-.6101234.5495529-.9965538-.3057785-.2879021-.9926376.1786707-1.2952576.3190411-4.0478172,1.8775752-7.3885345,5.3572474-8.3616753,9.7985311-.5039215,2.2998304-.3169861,4.6595325.5088844,6.8613319.7969475,2.1246929,2.044117,4.3504486,3.8043442,5.8273392,1.820488,1.5274506,4.1838913,1.9228363,6.4795303,2.1535435,1.1598206.1165581,2.3538742.1252155,3.4859619-.1876526,1.0964279-.3030167,2.0507812-.9317093,2.8576736-1.7231064.7970505-.7817516,1.4486542-1.7016544,2.0541687-2.6353588.6809387-1.050024,1.2978516-2.1394997,1.840477-3.2674046.2707901-.5628586.523056-1.1345444.7594223-1.7126875.1237335-.3026552.5982437-1.0736074.0469971-1.2282133h-.0000153Z"/>
    </g>
    <path class="st0" d="M38.3667564.3216323v15.7959973L33.5047874.3216323h-6.0710812v20.0110852c-.0949535.0796795-.2011909.1448822-.2011909.1448822-.0225735.0225735-.045145.0333691-.0677185.0333691-.0893097.045145-.1678238.0672283-.23456.0672283-.3582191,0-.5653-.1727295-.6202583-.5196629-.0559406-.3464413-.0844021-.7880821-.0844021-1.3249207V4.0456405c0-.7826846-.1560459-1.4137392-.46912-1.8951271-.3130741-.4804064-.6595154-.8661056-1.0393257-1.1566066-.4475288-.3130738-.9509983-.5476338-1.509428-.7046615l-2.0119171,2.0457754c-.46912-.3798106-1.0177345-.7262528-1.6429024-1.0393265-.5594101-.2458464-1.229723-.4750086-2.0128975-.6874866-.7821941-.212478-1.698843-.3189624-2.7499466-.3189624-1.4083414,0-2.6773205.2517349-3.8059568.754714-1.1286364.5029792-2.0953379,1.1683837-2.9010859,1.9952322-.8047667.8273394-1.4250259,1.7773564-1.8607774,2.8505423s-.6536274,2.1915169-.6536274,3.3535213c0,.7159481.0775323,1.3700657.23456,1.9618635.1560464.5927792.3690147,1.1237288.6369433,1.5928488.2689099.4696102.5702066.877883.9058533,1.2243252.3346653.3469334.6811075.6536274,1.0393267.9220467.8047667.6261473,1.7322111,1.0957584,2.7833147,1.4083424l-6.265893,8.142128-.0053978-.0011654V.3216323H0v24.5154473h5.3934083v-.0048466l.0073609.0048466c.46912-.3798103,1.0393267-.7149658,1.7106199-1.0059586.5584297-.2458458,1.2405186-.4745178,2.0452843-.6874866.8047667-.2119865,1.743988-.3184719,2.8166828-.3184719.8273392,0,1.5427961.1064835,2.1463718.3184719.6035748.2129688,1.0952673.4416409,1.4760599.6874866.4691191.2909927.8597269.6261482,1.1737814,1.0059586l4.5263214-4.5273037v1.3082371c0,.8047657.1059933,1.4250259.3189621,1.861269.2119865.435751.4416409.7542229.6879768.9554157.2679291.2463379.5917988.3798103.9716091.4023838l4.1592693-4.1916561v4.1916561h4.8973007v-15.7626295l4.861969,15.7626295h6.0710793V.3216323h-4.8973007ZM9.3244963,14.3741327c-.5819836-.4912024-1.1188221-1.1286364-1.6095333-1.9113207-.4926744-.7821941-.73803-1.7773561-.73803-2.9845066,0-1.0064487.1894145-1.8833499.5702066-2.6326661.3798108-.7488256.8597264-1.3631959,1.44171-1.844584.5810022-.4804063,1.2179451-.8435326,1.9118118-1.08987.6928844-.2458465,1.3631964-.369015,2.0119162-.369015,1.0726948,0,1.9726591.1457412,2.699894.4362423.7262526.2909918,1.3131437.6148615,1.7606726.97259.5132847.4249558.9274445.9053626,1.2405186,1.44171l-1.4083424,1.8779521c-.3140545-.335156-.6595154-.6369433-1.040308-.9053626-.3346653-.2458463-.7321415-.4578338-1.1904659-.6369433-.4583244-.1786189-.9774971-.2684193-1.5584993-.2684193-.8724852,0-1.5879421.1903958-2.1463709.5702066-.559411.3803015-.995163.7939711-1.3082361,1.2405186-.3582191.5368385-.6261473,1.1404133-.8047667,1.8112154l.2011919.1339645c.1118822-.1786184.2679281-.3464422.46912-.5029793.1560459-.1113911.3572378-.2178755.6035748-.3184719s.5476341-.1511393.9058533-.1511393c.6477385,0,1.184577.11728,1.6095333.3523312.4249563.23456.7596207.5088673,1.0059586.8214512.2905006.3356466.5250607.7267437.7046614,1.1737814l-3.0178747,4.0576916c-.8724852-.312583-1.6438828-.7375393-2.3141956-1.2743769ZM20.5254726,20.3097759h-.0343494c-.3572369-.4023838-.7929897-.7709084-1.3072548-1.106554-.4249554-.2679291-.9559059-.5137749-1.5928497-.7375393-.6379242-.2232742-1.3808613-.3356457-2.2307739-.3356457-.6487207,0-1.229723.0731163-1.7430067.2183666-.5152473.1452503-.9617939.3071861-1.3416052.4858036-.4475288.2237644-.8391161.4696102-1.1737814.7380295l-4.9630542,4.2922516,5.5666299-7.3773537h8.8200455v3.8226414ZM20.5254726,13.6027342h-6.6403055l6.6403055-8.7189589v8.7189589ZM21.2958908,19.5388695l-.5024891.5029793V4.5819879c.1344547,0,.228672.0951982.2846127.2851033.0559406.1903958.1059933.4082718.1511383.6541181.045145.2679286.0667362.5814929.0667362.9387307,0,0,0,13.0789294.0000019,13.0789294Z"/>
  </g>
</svg>