<?xml version="1.0" encoding="UTF-8" standalone="no"?><!DOCTYPE svg PUBLIC "-//W3C//DTD SVG 1.1//EN" "http://www.w3.org/Graphics/SVG/1.1/DTD/svg11.dtd"><svg width="100%" height="100%" viewBox="0 0 38 32" version="1.1" xmlns="http://www.w3.org/2000/svg" xmlns:xlink="http://www.w3.org/1999/xlink" xml:space="preserve" xmlns:serif="http://www.serif.com/" style="fill-rule:evenodd;clip-rule:evenodd;stroke-linejoin:round;stroke-miterlimit:2;"><g><path d="M13.162,26.634c-0.988,0 -1.482,-0.555 -1.482,-1.666c0,-1.58 0.735,-4.493 2.205,-8.74c-1.975,0 -3.836,0.161 -5.582,0.483c-2.32,3.348 -4.014,6.138 -5.082,8.37l-0.121,0.259c-0.092,0.265 -0.221,0.506 -0.388,0.725c-0.167,0.219 -0.451,0.328 -0.853,0.328c-0.23,0 -0.491,-0.049 -0.784,-0.146c-0.293,-0.097 -0.546,-0.238 -0.758,-0.421c-0.212,-0.183 -0.319,-0.401 -0.319,-0.653c0,-0.447 1.418,-2.906 4.255,-7.376l-0.224,0c-0.23,0 -0.434,-0.141 -0.612,-0.422c-0.178,-0.281 -0.267,-0.663 -0.267,-1.145c0,-0.62 0.172,-0.998 0.517,-1.136c0.873,-0.287 1.815,-0.528 2.825,-0.723c4.985,-7.435 8.757,-12.036 11.319,-13.803c0.551,-0.379 1.028,-0.568 1.43,-0.568c0.494,0 1.005,0.287 1.533,0.861c0.528,0.574 0.792,1.2 0.792,1.878c-0.046,1.171 -0.233,2.303 -0.56,3.394c-0.327,1.091 -0.658,2.062 -0.991,2.911c-0.184,0.471 -0.333,0.884 -0.448,1.24c-0.459,1.413 -0.89,2.688 -1.292,3.825l0.244,0.034c0.406,0.023 0.726,0.092 0.958,0.207c0.232,0.115 0.349,0.368 0.349,0.758c0,0.287 -0.088,0.574 -0.263,0.861c-0.175,0.287 -0.426,0.431 -0.754,0.431l-1.292,-0.121l-0.798,2.188c-0.624,1.7 -1.101,3.067 -1.43,4.1c-0.329,1.034 -0.494,1.855 -0.494,2.464c0.023,0.126 0.034,0.241 0.034,0.345c0,0.356 -0.175,0.655 -0.525,0.896c-0.35,0.241 -0.732,0.362 -1.146,0.362Zm-2.86,-12.68c0.896,-0.069 1.797,-0.103 2.705,-0.103l1.688,0l0.534,-1.53c0.77,-2.155 1.522,-4.551 2.257,-7.187c-2.113,2.209 -4.508,5.15 -7.184,8.821Z" style="fill:#586034;fill-rule:nonzero;"/><path d="M27.495,31.182c-0.747,0 -1.12,-0.603 -1.12,-1.809l0,-0.052c0.057,-1.585 0.534,-3.463 1.43,-5.633l0.017,-0.069c-1.872,1.585 -3.612,2.377 -5.22,2.377c-1.7,0 -2.969,-0.735 -3.807,-2.205c-0.459,-0.827 -0.689,-1.866 -0.689,-3.118c0,-0.712 0.075,-1.499 0.224,-2.36c0.586,-2.653 1.645,-5.323 3.178,-8.011c1.533,-2.688 3.11,-4.835 4.729,-6.443c2.607,-2.469 5.048,-3.704 7.322,-3.704c0.884,0 1.648,0.195 2.291,0.586c1.217,0.735 1.826,1.941 1.826,3.618c0,1.39 -0.534,3.015 -1.602,4.875c-0.276,0.436 -0.626,0.741 -1.051,0.913c-0.149,0.057 -0.304,0.086 -0.465,0.086c-0.287,0 -0.597,-0.121 -0.93,-0.362c-0.574,-0.494 -0.861,-1.051 -0.861,-1.671c0,-0.276 0.069,-0.54 0.207,-0.792c0.792,-1.344 1.189,-2.343 1.189,-2.998c0,-0.23 -0.052,-0.413 -0.155,-0.551c-0.207,-0.276 -0.517,-0.413 -0.93,-0.413c-0.379,0 -0.827,0.115 -1.344,0.345c-1.171,0.505 -2.406,1.407 -3.704,2.705c-1.631,1.757 -2.992,3.733 -4.083,5.926c-1.55,3.089 -2.326,5.697 -2.326,7.821c0,1.149 0.27,1.918 0.81,2.309c0.23,0.23 0.586,0.345 1.068,0.345c0.574,0 1.246,-0.247 2.016,-0.741c1.436,-1.022 2.779,-2.464 4.031,-4.324c-1.206,0.126 -2.148,0.19 -2.825,0.19c-0.976,0 -1.464,-0.362 -1.464,-1.085c0,-0.792 0.273,-1.335 0.819,-1.628c0.546,-0.293 1.255,-0.439 2.127,-0.439c1.665,-0.167 2.998,-0.436 3.997,-0.806c0.184,-0.072 0.35,-0.107 0.5,-0.107c0.517,0 0.976,0.356 1.378,1.068c0.069,0.195 0.103,0.39 0.103,0.586c0,0.253 -0.069,0.5 -0.207,0.741c-1.344,2.619 -2.326,4.887 -2.946,6.805c-0.907,2.848 -1.361,4.921 -1.361,6.219c0,0.632 -0.118,1.042 -0.353,1.232c-0.235,0.19 -0.663,0.347 -1.283,0.474c-0.253,0.069 -0.431,0.103 -0.534,0.103Z" style="fill:#586034;fill-rule:nonzero;"/></g></svg>

