<svg width="1388" height="282" viewBox="0 0 1388 282" fill="none" xmlns="http://www.w3.org/2000/svg">
<path d="M89.2489 168.844L61.1212 273.404C59.2176 280.482 68.5013 284.966 72.8614 279.076L175.976 139.786C179.347 135.231 175.827 128.819 170.174 129.218L81.38 135.501C76.4548 135.848 72.8881 130.889 74.7872 126.33L119.498 19.0247C122.512 11.7905 112.697 6.22643 108.038 12.528L1.31594 156.879C-2.0913 161.488 1.55371 167.957 7.26085 167.43L82.2321 160.515C86.8341 160.09 90.4496 164.381 89.2489 168.844Z" fill="#000000"/>
<path d="M220.184 134.949L178.075 18.4813C175.634 11.729 184.164 6.44998 189.119 11.6474L304.854 133.072C307.558 135.91 307.226 140.459 304.14 142.875L129.27 279.727C123.128 284.533 115.168 276.643 119.919 270.458L219.205 141.248C220.585 139.454 220.953 137.078 220.184 134.949Z" fill="#000000"/>
<path d="M397.663 273.151C370.883 273.151 350.465 254.07 350.465 228.965V163.02H385.277V228.965C385.277 235.994 390.634 241.015 397.663 241.015C404.358 241.015 409.714 235.994 409.714 228.965V171.053C409.714 143.939 350.465 145.948 350.465 106.783V44.1861C350.465 19.0803 370.883 0 397.663 0C424.442 0 444.527 19.0803 444.527 44.1861V103.77H409.714V44.1861C409.714 37.1564 404.358 32.1353 397.663 32.1353C390.634 32.1353 385.277 37.1564 385.277 44.1861V95.7366C385.277 123.186 444.527 123.52 444.527 159.673V228.965C444.527 254.07 424.442 273.151 397.663 273.151ZM479.539 270.473V34.4785H450.752V2.6779H542.805V34.4785H514.353V270.473H479.539ZM577.336 270.473V203.525L546.205 2.6779H581.018L594.744 151.304L608.803 2.6779H643.616L612.15 203.525V270.473H577.336ZM649.903 270.473V2.6779H684.716V238.671H720.533V270.473H649.903ZM727.051 270.473V2.6779H803.372V34.4785H761.863V115.487H803.372V147.622H761.863V238.671H803.372V270.473H727.051ZM857.156 270.473V2.6779H904.355C930.799 2.6779 951.219 21.4235 951.219 46.5293V226.621C951.219 251.727 931.134 270.473 904.355 270.473H857.156ZM891.97 238.671H904.355C911.049 238.671 916.405 233.316 916.405 226.621V46.5293C915.737 39.8345 910.381 34.4785 904.02 34.4785H891.97V238.671ZM960.455 270.473V2.6779H1007.66C1034.43 2.6779 1054.52 21.4235 1054.52 46.5293V121.846C1054.52 138.919 1045.15 150.969 1034.1 158L1060.21 270.473H1023.39L1004.64 166.033H995.269V270.473H960.455ZM995.269 133.898H1007.66C1014.35 133.898 1019.71 128.875 1019.71 121.846V46.5293C1019.71 39.8345 1014.35 34.4785 1007.66 34.4785H995.269V133.898ZM1064.08 270.473V2.6779H1098.9V270.473H1064.08ZM1137 270.473L1105.2 2.6779H1140.68L1154.41 203.858L1168.13 2.6779H1203.62L1171.82 270.473H1137ZM1209.88 270.473V2.6779H1286.2V34.4785H1244.69V115.487H1286.2V147.622H1244.69V238.671H1286.2V270.473H1209.88ZM1294.55 270.473L1294.22 2.6779H1326.35L1354.81 169.045L1352.8 2.6779H1387.61L1387.95 270.473H1355.81L1327.36 105.444L1329.37 270.473H1294.55Z" fill="#000000"/>
</svg>




