<svg width="404" height="115" viewBox="0 0 404 115" fill="none" xmlns="http://www.w3.org/2000/svg">
<path d="M77.6419 88.8111L54.2496 26.9267H70.2158L85.3156 68.8843L100.415 26.9267H116.382L92.9892 88.8111H77.6419Z" fill="#000000"/>
<path d="M114.609 57.8689C114.609 38.8085 127.481 26.0603 146.665 26.0603C165.849 26.0603 178.598 38.8085 178.598 57.8689C178.598 77.0531 165.849 89.9251 146.665 89.9251C127.481 89.9251 114.609 77.0531 114.609 57.8689ZM129.461 57.9927C129.461 69.5032 136.269 76.3105 146.542 76.3105C156.938 76.3105 163.745 69.5032 163.745 57.9927C163.745 46.4822 156.938 39.6749 146.542 39.6749C136.269 39.6749 129.461 46.4822 129.461 57.9927Z" fill="#000000"/>
<path d="M232.882 2.17293H247.734V57.9927C247.734 77.9195 233.501 89.8013 215.307 89.8013C196.618 89.8013 183.746 77.0531 183.746 57.9927C183.746 38.8085 196.618 25.9366 214.564 25.9366C223.475 25.9366 229.911 29.1545 232.882 32.9914V2.17293ZM198.598 57.8689C198.598 69.3794 205.405 76.1867 215.678 76.1867C226.075 76.1867 232.882 69.3794 232.882 57.8689C232.882 46.3584 226.075 39.5511 215.678 39.5511C205.405 39.5511 198.598 46.3584 198.598 57.8689Z" fill="#000000"/>
<path d="M254.477 8.98022C254.477 4.52454 258.066 0.811478 262.645 0.811478C267.225 0.811478 270.814 4.52454 270.814 8.98022C270.814 13.6834 267.225 17.2727 262.645 17.2727C258.066 17.2727 254.477 13.6834 254.477 8.98022ZM255.219 88.8111V26.9267H270.072V88.8111H255.219Z" fill="#000000"/>
<path d="M305.321 25.8128C325.743 25.8128 333.788 41.1601 333.788 51.928V88.8111H318.936V52.2993C318.936 43.5117 312.5 39.5511 305.321 39.5511C298.143 39.5511 291.707 43.5117 291.707 52.2993V88.8111H276.855V51.928C276.855 41.1601 284.9 25.8128 305.321 25.8128Z" fill="#000000"/>
<path d="M403.288 57.9927V86.3358C403.288 102.673 391.035 114.308 372.346 114.308C359.845 114.308 349.82 108.985 343.384 100.817L355.514 92.2767C358.855 96.361 363.93 100.693 372.47 100.693C382.743 100.693 388.436 94.6283 388.436 86.3358V82.7465C385.466 86.5833 379.153 89.8013 370.118 89.8013C352.172 89.8013 339.3 76.9293 339.3 57.7451C339.3 38.6847 352.172 25.9366 371.232 25.9366C390.416 25.9366 403.288 38.8085 403.288 57.9927ZM388.436 57.8689C388.436 46.3584 381.629 39.5511 371.356 39.5511C360.959 39.5511 354.152 46.3584 354.152 57.8689C354.152 69.3794 360.959 76.1867 371.356 76.1867C381.629 76.1867 388.436 69.3794 388.436 57.8689Z" fill="#000000"/>
<path d="M0 97.9793L36.7406 0H51.5755L14.8349 97.9793H0Z" fill="#000000"/>
</svg>





