<?xml version="1.0" encoding="UTF-8" standalone="no"?><!DOCTYPE svg PUBLIC "-//W3C//DTD SVG 1.1//EN" "http://www.w3.org/Graphics/SVG/1.1/DTD/svg11.dtd"><svg width="100%" height="100%" viewBox="0 0 214 60" version="1.1" xmlns="http://www.w3.org/2000/svg" xmlns:xlink="http://www.w3.org/1999/xlink" xml:space="preserve" xmlns:serif="http://www.serif.com/" style="fill-rule:evenodd;clip-rule:evenodd;stroke-linejoin:round;stroke-miterlimit:2;"><rect id="Artboard7" x="0" y="0" width="213.916" height="59.328" style="fill:none;"/><clipPath id="_clip1"><rect x="0" y="0" width="213.916" height="59.328"/></clipPath><g clip-path="url(#_clip1)"><g><g><g><path d="M43.397,38.986l4.439,0c0.156,0 0.298,0.033 0.422,0.089l0.188,0.114l0.157,0.157l0.114,0.193l0.063,0.215c0.023,0.135 0.018,0.286 -0.026,0.446l-0.66,2.414c-0.149,0.545 -0.717,0.951 -1.236,0.951l-8.64,0c-0.49,0 -0.853,-0.209 -1.068,-0.526c-0.201,-0.296 -0.28,-0.708 -0.149,-1.188l7.35,-26.884c0.22,-0.806 0.994,-1.367 1.707,-1.367l2.061,0c0.444,0 0.78,0.195 0.983,0.481c0.195,0.276 0.274,0.652 0.161,1.066l-6.315,23.097c-0.059,0.214 -0.044,0.412 0.053,0.555c0.082,0.121 0.224,0.187 0.397,0.187Zm19.2,-20.807c-0.514,0 -1.053,0.465 -1.201,1.005l-1.912,6.992c-0.062,0.226 -0.053,0.425 0.045,0.565c0.084,0.12 0.231,0.177 0.405,0.177l2.695,0l0.23,0.03l0.207,0.085l0.173,0.127l0.136,0.159l0.097,0.183l0.057,0.201l0.013,0.213c-0.003,0.072 -0.015,0.144 -0.034,0.217l-0.66,2.414c-0.085,0.311 -0.312,0.603 -0.579,0.783c-0.205,0.138 -0.43,0.21 -0.629,0.21l-2.695,0c-0.514,0 -1.045,0.435 -1.201,1.005l-1.559,5.701c-0.059,0.214 -0.044,0.412 0.053,0.555c0.082,0.121 0.224,0.187 0.397,0.187l4.439,0c0.156,0 0.298,0.033 0.422,0.089l0.188,0.114l0.157,0.157l0.114,0.193l0.063,0.215c0.023,0.135 0.018,0.286 -0.026,0.446l-0.66,2.414c-0.149,0.545 -0.717,0.951 -1.236,0.951l-8.64,0c-0.49,0 -0.853,-0.209 -1.068,-0.526c-0.201,-0.296 -0.28,-0.708 -0.149,-1.188l7.339,-26.842c0.217,-0.793 0.988,-1.409 1.797,-1.409l8.64,0c0.156,0 0.298,0.033 0.422,0.089l0.188,0.114l0.157,0.157l0.114,0.193l0.063,0.215c0.023,0.135 0.018,0.286 -0.026,0.446l-0.649,2.372c-0.147,0.537 -0.736,0.992 -1.247,0.992l-4.439,0Zm12.736,4.335l4.232,-8.13l0.017,-0.024c0.29,-0.425 0.87,-0.759 1.274,-0.759l2.854,0l0.219,0.024l0.219,0.083l0.196,0.158l0.131,0.219l0.044,0.19l-0.003,0.183c-0.017,0.134 -0.069,0.288 -0.171,0.444l-7.249,13.051l-0,0.001c-0.42,0.751 -0.65,1.576 -0.642,2.327l0.341,12.231l-0.004,-0.053l0.005,0.218l-0.042,0.21l-0.086,0.192l-0.124,0.167c-0.179,0.193 -0.443,0.322 -0.753,0.322l-2.854,0c-0.511,0 -0.989,-0.438 -1.061,-0.974l-0.005,-0.04l0.208,-7.9l-4.232,8.13l-0.017,0.024c-0.29,0.425 -0.87,0.759 -1.274,0.759l-2.893,0l-0.22,-0.027l-0.218,-0.093l-0.185,-0.167l-0.116,-0.218l-0.038,-0.228l0.024,-0.214c0.026,-0.111 0.076,-0.233 0.158,-0.357l7.109,-12.39l0.002,-0.003c0.465,-0.787 0.696,-1.61 0.687,-2.36l-0.249,-12.857l0.004,0.057l-0.005,-0.217l0.041,-0.207l0.081,-0.188l0.116,-0.164l0.147,-0.137l0.173,-0.105l0.196,-0.067l0.212,-0.024l2.893,0c0.511,0 0.989,0.438 1.061,0.974l0.005,0.04l-0.208,7.9Zm-50.117,28.183c-1.878,0 -2.817,-1.056 -2.817,-3.167c0,-3.004 1.398,-8.543 4.193,-16.619c-3.756,0 -7.294,0.306 -10.614,0.919c-4.412,6.366 -7.633,11.671 -9.664,15.915l-0.229,0.492c-0.175,0.503 -0.42,0.963 -0.737,1.378c-0.317,0.416 -0.857,0.623 -1.622,0.623c-0.437,0 -0.934,-0.093 -1.491,-0.278c-0.557,-0.185 -1.037,-0.452 -1.441,-0.801c-0.404,-0.349 -0.606,-0.763 -0.606,-1.242c0,-0.85 2.697,-5.525 8.092,-14.026l-0.426,0c-0.437,0 -0.824,-0.267 -1.163,-0.802c-0.339,-0.535 -0.508,-1.26 -0.508,-2.176c0,-1.178 0.328,-1.898 0.983,-2.16c1.66,-0.546 3.451,-1.004 5.373,-1.375c9.478,-14.138 16.653,-22.888 21.523,-26.247c1.048,-0.72 1.955,-1.08 2.719,-1.08c0.939,0 1.911,0.546 2.916,1.638c1.005,1.092 1.507,2.282 1.507,3.571c-0.087,2.228 -0.442,4.379 -1.065,6.454c-0.622,2.075 -1.25,3.92 -1.884,5.536c-0.349,0.895 -0.633,1.682 -0.852,2.359c-0.874,2.686 -1.693,5.11 -2.457,7.273l0.464,0.066c0.773,0.044 1.38,0.175 1.822,0.393c0.442,0.218 0.663,0.699 0.663,1.441c0,0.546 -0.167,1.092 -0.5,1.638c-0.333,0.546 -0.81,0.819 -1.433,0.819l-2.457,-0.229l-1.517,4.16c-1.187,3.232 -2.094,5.831 -2.72,7.797c-0.626,1.966 -0.939,3.527 -0.939,4.685c0.044,0.24 0.066,0.459 0.066,0.655c0,0.677 -0.333,1.245 -0.999,1.703c-0.666,0.459 -1.392,0.688 -2.179,0.688Zm-5.438,-24.111c1.703,-0.131 3.418,-0.197 5.143,-0.197l3.21,0l1.016,-2.91c1.463,-4.098 2.894,-8.653 4.291,-13.666c-4.018,4.201 -8.572,9.792 -13.661,16.773Zm125.1,15.942l-0,0.004c-0.005,0.566 -0.465,1.033 -1.005,1.033l-2.893,0c-0.538,0 -1.027,-0.477 -1.026,-1.047l0.186,-8.061c-0.015,-0.212 -0.149,-0.38 -0.37,-0.38l-0.872,0c-0.514,0 -1.053,0.465 -1.201,1.005l-2.071,7.574c-0.136,0.498 -0.671,0.909 -1.145,0.909l-2.893,0l-0.215,-0.025l-0.202,-0.075l-0.176,-0.122l-0.139,-0.159l-0.096,-0.184l-0.051,-0.199c-0.018,-0.127 -0.011,-0.265 0.028,-0.409l7.612,-27.841c0.153,-0.559 0.691,-0.951 1.157,-0.951l7.689,0c1.474,0 2.633,0.642 3.324,1.66c0.676,0.996 0.906,2.368 0.492,3.882l-2.685,9.821c-0.404,1.478 -1.354,2.78 -2.535,3.675c-0.435,0.359 -0.672,0.876 -0.682,1.365l-0.232,8.524Zm-5.002,-13.031l2.418,0c0.514,0 1.053,-0.465 1.201,-1.005l2.617,-9.572c0.059,-0.214 0.044,-0.412 -0.053,-0.555c-0.082,-0.121 -0.224,-0.187 -0.397,-0.187l-2.418,0c-0.514,0 -1.053,0.465 -1.201,1.005l-2.617,9.572c-0.059,0.214 -0.044,0.412 0.053,0.555c0.082,0.121 0.224,0.187 0.397,0.187Zm23.728,-15.897c1.512,0 2.708,0.652 3.422,1.695c0.699,1.022 0.939,2.435 0.507,4.014l-5.143,18.81c-0.82,2.999 -3.85,5.445 -6.706,5.445l-3.21,0c-1.513,0 -2.707,-0.663 -3.419,-1.712c-0.698,-1.027 -0.936,-2.441 -0.511,-3.997l5.143,-18.81c0.832,-3.044 3.85,-5.445 6.706,-5.445l3.21,0Zm-1.05,5.778c0.098,-0.358 0.069,-0.681 -0.089,-0.914c-0.143,-0.211 -0.392,-0.327 -0.7,-0.327l-1.506,0c-0.755,0 -1.548,0.679 -1.774,1.505l-4.961,18.145c-0.093,0.339 -0.06,0.651 0.094,0.877c0.139,0.204 0.376,0.322 0.667,0.322l1.506,0c0.786,0 1.585,-0.671 1.802,-1.463l4.961,-18.145Zm15.959,2.879c-0.115,0 -0.216,-0.015 -0.304,-0.04l-0.15,-0.057l-0.139,-0.085l-0.12,-0.11l-0.093,-0.125l-0.111,-0.262c-0.091,-0.342 -0.007,-0.895 0.122,-1.506c0.089,-0.423 0.192,-0.882 0.2,-1.301c0.006,-0.298 -0.023,-0.576 -0.218,-0.761c-0.182,-0.173 -0.482,-0.247 -0.931,-0.247c-1.387,0 -2.152,1.147 -2.511,2.462c-0.43,1.574 0.009,2.792 0.76,3.937c0.544,0.828 1.245,1.618 1.931,2.462c1.83,2.251 3.546,4.855 2.334,9.291c-1.268,4.638 -4.779,8.067 -9.404,8.067c-1.971,0 -3.509,-0.851 -4.421,-2.202c-0.897,-1.329 -1.19,-3.159 -0.639,-5.171c0.112,-0.408 0.214,-1.073 0.492,-1.543c0.26,-0.44 0.646,-0.74 1.228,-0.74l2.457,0c0.123,0 0.23,0.017 0.323,0.046l0.157,0.065l0.144,0.096l0.119,0.121l0.09,0.135c0.044,0.081 0.078,0.174 0.101,0.277c0.083,0.375 -0.023,0.982 -0.167,1.652c-0.103,0.481 -0.218,1.004 -0.228,1.48c-0.007,0.357 0.033,0.689 0.262,0.911c0.208,0.201 0.549,0.293 1.06,0.293c0.953,0 1.705,-0.476 2.282,-1.156c0.626,-0.736 1.052,-1.708 1.307,-2.638c0.802,-2.934 -0.977,-4.678 -2.634,-6.658c-1.855,-2.218 -3.62,-4.678 -2.464,-8.906c1.024,-3.747 4.832,-6.86 8.401,-6.86c1.89,0 3.378,0.819 4.263,2.123c0.87,1.282 1.161,3.05 0.627,5.001c-0.108,0.396 -0.229,0.957 -0.501,1.347c-0.25,0.359 -0.605,0.603 -1.127,0.603l-2.497,0Zm15.339,0c-0.115,0 -0.216,-0.015 -0.304,-0.04l-0.15,-0.057l-0.139,-0.085l-0.12,-0.11l-0.093,-0.125l-0.111,-0.262c-0.091,-0.342 -0.007,-0.895 0.122,-1.506c0.089,-0.423 0.192,-0.882 0.2,-1.301c0.006,-0.298 -0.023,-0.576 -0.218,-0.761c-0.182,-0.173 -0.482,-0.247 -0.931,-0.247c-1.387,0 -2.152,1.147 -2.511,2.462c-0.43,1.574 0.009,2.792 0.76,3.937c0.544,0.828 1.245,1.618 1.931,2.462c1.83,2.251 3.546,4.855 2.334,9.291c-1.268,4.638 -4.779,8.067 -9.404,8.067c-1.971,0 -3.509,-0.851 -4.421,-2.202c-0.897,-1.329 -1.19,-3.159 -0.639,-5.171c0.112,-0.408 0.214,-1.073 0.492,-1.543c0.26,-0.44 0.646,-0.74 1.228,-0.74l2.457,0c0.123,0 0.23,0.017 0.323,0.046l0.157,0.065l0.144,0.096l0.119,0.121l0.09,0.135c0.044,0.081 0.078,0.174 0.101,0.277c0.083,0.375 -0.023,0.982 -0.167,1.652c-0.103,0.481 -0.218,1.004 -0.228,1.48c-0.007,0.357 0.033,0.689 0.262,0.911c0.208,0.201 0.549,0.293 1.06,0.293c0.953,0 1.705,-0.476 2.282,-1.156c0.626,-0.736 1.052,-1.708 1.307,-2.638c0.802,-2.934 -0.977,-4.678 -2.634,-6.658c-1.855,-2.218 -3.62,-4.678 -2.464,-8.906c1.024,-3.747 4.832,-6.86 8.401,-6.86c1.89,0 3.378,0.819 4.263,2.123c0.87,1.282 1.161,3.05 0.627,5.001c-0.108,0.396 -0.229,0.957 -0.501,1.347c-0.25,0.359 -0.605,0.603 -1.127,0.603l-2.497,0Zm13.877,-4.078c-0.514,0 -1.053,0.465 -1.201,1.005l-1.912,6.992c-0.062,0.226 -0.053,0.425 0.045,0.565c0.084,0.12 0.231,0.177 0.405,0.177l2.695,0l0.23,0.03l0.207,0.085l0.173,0.127l0.136,0.159l0.097,0.183l0.057,0.201l0.013,0.213c-0.003,0.072 -0.015,0.144 -0.034,0.217l-0.66,2.414c-0.085,0.311 -0.312,0.603 -0.579,0.783c-0.205,0.138 -0.43,0.21 -0.629,0.21l-2.695,0c-0.514,0 -1.045,0.435 -1.201,1.005l-1.559,5.701c-0.059,0.214 -0.044,0.412 0.053,0.555c0.082,0.121 0.224,0.187 0.397,0.187l4.439,0c0.156,0 0.298,0.033 0.422,0.089l0.188,0.114l0.157,0.157l0.114,0.193l0.063,0.215c0.023,0.135 0.018,0.286 -0.026,0.446l-0.66,2.414c-0.149,0.545 -0.717,0.951 -1.236,0.951l-8.64,0c-0.49,0 -0.853,-0.209 -1.068,-0.526c-0.201,-0.296 -0.28,-0.708 -0.149,-1.188l7.339,-26.842c0.217,-0.793 0.988,-1.409 1.797,-1.409l8.64,0c0.156,0 0.298,0.033 0.422,0.089l0.188,0.114l0.157,0.157l0.114,0.193l0.063,0.215c0.023,0.135 0.018,0.286 -0.026,0.446l-0.649,2.372c-0.147,0.537 -0.736,0.992 -1.247,0.992l-4.439,0Zm-90.236,41.167c-1.42,0 -2.129,-1.147 -2.129,-3.44l0,-0.098c0.109,-3.014 1.016,-6.585 2.719,-10.712l0.033,-0.131c-3.56,3.014 -6.869,4.521 -9.926,4.521c-3.232,0 -5.646,-1.398 -7.24,-4.193c-0.874,-1.572 -1.31,-3.549 -1.31,-5.929c0,-1.354 0.142,-2.85 0.426,-4.488c1.114,-5.045 3.129,-10.123 6.044,-15.233c2.916,-5.11 5.913,-9.194 8.992,-12.252c4.958,-4.696 9.599,-7.043 13.923,-7.043c1.682,0 3.134,0.371 4.357,1.114c2.315,1.398 3.472,3.691 3.472,6.879c0,2.643 -1.016,5.733 -3.047,9.271c-0.524,0.83 -1.19,1.409 -1.998,1.736c-0.284,0.109 -0.579,0.164 -0.885,0.164c-0.546,0 -1.136,-0.229 -1.769,-0.688c-1.092,-0.939 -1.638,-1.998 -1.638,-3.178c0,-0.524 0.131,-1.026 0.393,-1.507c1.507,-2.555 2.26,-4.455 2.26,-5.7c0,-0.437 -0.098,-0.786 -0.295,-1.048c-0.393,-0.524 -0.983,-0.786 -1.769,-0.786c-0.721,0 -1.572,0.218 -2.555,0.655c-2.228,0.961 -4.575,2.675 -7.043,5.143c-3.101,3.341 -5.689,7.098 -7.764,11.269c-2.948,5.875 -4.423,10.832 -4.423,14.873c0,2.184 0.513,3.647 1.54,4.39c0.437,0.437 1.114,0.655 2.031,0.655c1.092,0 2.37,-0.47 3.833,-1.409c2.73,-1.944 5.285,-4.685 7.666,-8.223c-2.293,0.24 -4.084,0.36 -5.373,0.36c-1.856,0 -2.785,-0.688 -2.785,-2.064c0,-1.507 0.519,-2.539 1.558,-3.096c1.039,-0.557 2.387,-0.835 4.044,-0.835c3.167,-0.318 5.7,-0.828 7.6,-1.532c0.349,-0.136 0.666,-0.204 0.95,-0.204c0.983,0 1.856,0.677 2.621,2.031c0.131,0.371 0.197,0.743 0.197,1.114c0,0.48 -0.131,0.95 -0.393,1.409c-2.555,4.979 -4.423,9.293 -5.602,12.94c-1.725,5.416 -2.588,9.358 -2.588,11.826c0,1.201 -0.224,1.982 -0.672,2.342c-0.448,0.36 -1.261,0.661 -2.441,0.901c-0.48,0.131 -0.819,0.197 -1.016,0.197Z" style="fill:#586034;"/></g></g></g></g></svg>